<svg id="Layer_1" data-name="Layer 1" xmlns="http://www.w3.org/2000/svg" width="118.41747mm" height="106.46383mm" viewBox="0 0 335.67156 301.78723"><defs><style>.cls-1{fill:#d5e9c3;}.cls-2{fill:#f27071;}</style></defs><rect class="cls-1" x="-13.06259" y="-8.42553" width="363.52951" height="328.59574"/><path class="cls-2" d="M112.78064,111.57985l14.4375-15.83936a20.3235,20.3235,0,0,1,7.32715-5.41162,28.27761,28.27761,0,0,1,11.09863-2.37695q12.17433,0,19.55567,5.3457,7.37988,5.34669,13.52344,19.20557L192.64392,96.928a23.5108,23.5108,0,0,1,8.74122-6.07128,33.425,33.425,0,0,1,13.166-2.90479A29.84349,29.84349,0,0,1,232.141,93.49977a33.6081,33.6081,0,0,1,11.709,14.398q3.83057,8.85058,3.832,24.03809l-.43066,51.647q0,17.30493,1.626,20.40771,1.626,3.10475,8.34766,3.50049l7.91211.396v7.65283l-5.2002-.30762q-12.57129-.61817-17.01464-.61621-6.82618,0-15.92774.92383,1.50732-24.40577,1.50781-57.07764,0-27.602-1.93554-36.27148-1.93506-8.66748-7.418-13.60205a19.79439,19.79439,0,0,0-13.75977-4.93555,22.68616,22.68616,0,0,0-16.02148,6.20752,26.5054,26.5054,0,0,0-8.27637,14.88037q-1.0752,5.47339-1.07519,46.97754,0,24.42334.32324,27.82715.32226,3.405,1.77734,4.80566,1.45459,1.40113,9.32031,2.46778l7.21973,1.06787v7.65283q-19.07226-.925-28.01562-.92383-7.11036,0-27.583.92383V207.887h7.21875q6.46581,0,8.40429-2.24512,1.93945-2.24487,2.2627-10.56982.86133-21.665.8623-45.18164,0-21.00366-2.3164-28.9961a24.9794,24.9794,0,0,0-7.86621-12.61718,20.11719,20.11719,0,0,0-13.30664-4.624,22.93841,22.93841,0,0,0-15.085,5.68164,28.61447,28.61447,0,0,0-9.26661,13.73828q-1.61571,5.5481-1.61621,31.44141,0,28.407.43164,41.74707.21387,6.20947,1.61621,7.92676,1.39893,1.71972,9.26563,2.64111L131.098,207.887v7.65283q-13.4707-.925-25.42871-.92383-13.57764,0-29.52344.92383V207.887h8.18847q7.00342,0,8.4043-4.5625Q94.13758,198.76,94.14,153.65065q0-33.07031-.32324-39.022-.32373-5.95239-1.832-7.541-1.51026-1.58643-9.15821-1.5874H76.14588V98.24342a130.20912,130.20912,0,0,0,27.26074-7.25683l7.86523-3.69434q1.93945,0,1.93946,3.18506l-.21582,4.77881Q112.67322,102.554,112.78064,111.57985Z"/></svg>