<svg id="Layer_1" data-name="Layer 1" xmlns="http://www.w3.org/2000/svg" viewBox="0 0 336.61 464.43"><defs><style>.cls-1{fill:#e30613;}</style></defs><path class="cls-1" d="M.62,461.21c39.2-35.1,32-78.37,30.16-251.41l10,.15c-1.73,118.28.8,206.74-11.71,238.22a22,22,0,0,1-15,13.14L2.31,464.36A1.84,1.84,0,0,1,.62,461.21Z"/><path class="cls-1" d="M202.28,230.38c-.4,2.42-3.44,53.42-2.88,55.81,1.08,13.58,1.75,21.46,7.74,30.59a.13.13,0,0,0,.22,0c5.4-3,10.74-16.78,24.82-69.7a.14.14,0,0,1,.18-.1l9.38,2.49a.14.14,0,0,1,.1.18c-7.24,27.22-13.68,47.37-19.15,59.9-4.16,9.5-9.4,19.09-16.88,18.1-6.74-.88-10.24-8.86-12.1-27.54-1.09-11-1.13-21.69-1.13-22.66s-.29-14.14-.32-33.51a.16.16,0,0,0-.28-.1c-19.49,12.45-17.72,23-33.38,33.42-2.44,1.62-3.2,4.84-4.2,7.59a43.46,43.46,0,0,0-1.14,4.22c-.86,77.41-19.2,90.6-28.55,95a9.54,9.54,0,0,1-10.39-1.46A10.1,10.1,0,0,1,111,375V140.86a10.45,10.45,0,0,0-.8-4.13c-2-4.82-3.86-5.79-4.54-6-1.32-.37-3.19.76-4.18,1.46a16,16,0,0,0-6.68,13.68c3.28,75.69,3.65,172.89-.13,199-1.9,13.1-4,21.38-9.63,25-2.48,1.59-6.63,3-12.37.87a20.52,20.52,0,0,1-13-19.25V199.84a.16.16,0,0,1,.16-.16h9.69c0,1.48-3.26,83.22-4.17,105.9a61.6,61.6,0,0,0,.1,7.06c.25,3.33.63,6.66.75,10L67,343.7c.61,12.26,5.32,16.18,9.22,17.65,2.24.85,3.1.29,3.43.08,1-.62,5.41,8.41,10.06-72.74C91.63,254.94,85.34,184,84.8,146a26.4,26.4,0,0,1,10.88-22c5.43-3.86,9.9-3.72,12.7-2.93,4.58,1.3,8.29,5.23,11,11.7.94,2.22,6.38,61.87-.06,110.81a250,250,0,0,0-1.85,42.46l3.5,88.37a.15.15,0,0,0,.24.13c4.75-3.35,25.17-14.21,23.21-76.51-.11-3.74-1.43-10.78,0-16.3,2.14-8.21,5.38-9.75,10-12.37,11.77-6.75,20.09-17.46,37.86-42.23a.17.17,0,0,0,0-.1c.08-14.4-6-28.41-1.56-46.4A120.44,120.44,0,0,0,194,157.29c-1.84-71.71,13.08-96.38,21.69-98.79,8.81-2.48,15,8.2,17.06,11.71,6.54,11.28,7.33,24.44,8.66,38,7.77,79.31-19.29,96.57-39.08,122.11l0,.1M224,75.06a5.51,5.51,0,0,0-10,1.06c-.62,1.86-1.29,4.15-2,7a109.41,109.41,0,0,0-2.92,28.8c.91,31.87-4.87,34.85-5.83,62.34-.43,12.42-.7,24.83-.85,36.5,0,.15.09.2.22.12,24.26-15.89,37.6-71.43,31.15-96.88a38.71,38.71,0,0,1-.94-12.56c.7-9-4.29-18.4-8.8-26.16A1.62,1.62,0,0,1,224,75.06Z"/><path class="cls-1" d="M40.78,210.31l-10-.07c.23-30.94,10.84-44.78,21.27-44.78h0c8.51,0,17.44,8.74,17.44,34.22l-9.85.4c0-17.38-5-24.61-7.63-24.62h0C48.32,175.46,41,186,40.78,210.31Z"/><path class="cls-1" d="M257.93,291.54c-19,0-25.88-21.36-25.88-40.41a34.55,34.55,0,0,1,69.09,0C301.14,271.14,277,291.54,257.93,291.54Zm10.5-70c-13.53,0-26.29,16.11-26.29,29.65s2.26,28.5,15.79,28.5,33.3-15,33.3-28.5S282,221.58,268.43,221.58Z"/><path class="cls-1" d="M301,251.23h-9.81l-.09-.1,2.59-60.83c.09-1.94.1-3.88.06-5.83-.37-19.65,2.4-80.84-2.67-132.37L274.69,26.21a20.84,20.84,0,0,0-3.81-4.46c-4.83-4.27-14-11.81-12.85-14.86A11,11,0,0,1,268.41,0h58a10.69,10.69,0,0,1,8.82,4.42c2.7,3.89,1.4,7.52-4.46,12.23A23.34,23.34,0,0,0,327.4,20L301.16,52.18s-.54,33.79,0,48.27c.06,1.83,3,36.39,3,38.22L299,191.88a193.71,193.71,0,0,0-.07,36.28C300,239.22,301.06,251.21,301,251.23ZM283.27,4.33c-8.51,0-10.5-.86-14.24,0-3,.69-1.53,5.84-1.61,6s3.19,7.2,5.82,8.46a10.89,10.89,0,0,1,3.57,2.49l15.78,17.49a5.06,5.06,0,0,0,7.43.1l15.54-11.78a22.47,22.47,0,0,0,5.93-6.76l4.62-8.11a2.26,2.26,0,0,0-.68-3c-2.23-1.53-6.88-3.69-14.44-3Z"/><path class="cls-1" d="M163.33,210.88c-2,4.82-6.9,10.7-12.11,10.7s-6.77-5.49-6.77-10.7a9.44,9.44,0,0,1,9.44-9.44C159.11,201.44,167.21,201.44,163.33,210.88Z"/></svg>